<svg width="258" height="258" viewBox="0 0 258 258" fill="none" xmlns="http://www.w3.org/2000/svg">
    <rect width="258" height="258" fill="#007AC9" />
    <path
        d="M214.449 135.611C214.004 135.588 206.257 135.365 202.352 128.825C206.257 122.275 214.004 122.045 214.449 122.033C220.811 122.045 225.437 124.903 225.437 128.825C225.437 132.744 220.811 135.588 214.449 135.611ZM197.135 197.14C194.365 199.931 189.077 198.657 184.561 194.172C184.26 193.837 178.96 188.212 180.801 180.823C188.184 178.96 193.836 184.272 194.16 184.573C198.657 189.083 199.908 194.36 197.135 197.14ZM128.804 225.432C124.885 225.432 122.039 220.823 122.029 214.463C122.039 214.004 122.285 206.269 128.804 202.341C135.343 206.269 135.588 214.004 135.6 214.463C135.588 220.823 132.743 225.432 128.804 225.432ZM73.0613 194.172C68.5453 198.657 63.2667 199.931 60.488 197.14C57.72 194.36 58.96 189.083 63.4627 184.573C63.792 184.272 69.428 178.96 76.8267 180.823C78.6813 188.212 73.3733 193.848 73.0613 194.172ZM43.1787 135.611C36.816 135.588 32.1853 132.744 32.1853 128.825C32.1853 124.903 36.816 122.045 43.1787 122.033C43.6253 122.045 51.3693 122.275 55.288 128.825C51.3693 135.365 43.6253 135.588 43.1787 135.611ZM60.488 60.4947C63.256 57.7041 68.5453 58.9761 73.056 63.4694C73.3733 63.7867 78.6813 69.4454 76.8267 76.8334C69.428 78.6867 63.792 73.3734 63.4627 73.0667C58.96 68.5641 57.7093 63.2734 60.488 60.4947ZM128.804 32.1921C132.743 32.1921 135.588 36.8161 135.6 43.1841C135.588 43.6374 135.343 51.3761 128.804 55.2934C122.285 51.3761 122.039 43.6374 122.029 43.1841C122.039 36.8161 124.885 32.1921 128.804 32.1921ZM184.561 63.4694C189.077 58.9761 194.365 57.7041 197.135 60.4947C199.908 63.2734 198.657 68.5641 194.16 73.0667C193.836 73.3734 188.184 78.6867 180.801 76.8334C178.96 69.4454 184.26 63.7867 184.561 63.4694ZM173.652 173.657L128.804 192.229L83.9707 173.657L65.388 128.825V128.813L83.9707 83.9881L128.804 65.4161L173.652 83.9881L192.235 128.813V128.825L173.652 173.657ZM214.421 112.849C213.941 112.849 205.025 112.961 198.245 119.333L184.605 86.4201C193.915 86.1414 200.299 79.9147 200.64 79.5801C208.915 71.2987 210.176 60.5387 203.636 53.9934C197.085 47.4587 186.343 48.7081 178.067 56.9894C177.72 57.3361 171.487 63.7201 171.208 73.0174L138.296 59.3841C144.673 52.5921 144.768 43.6867 144.768 43.2001C144.768 31.4987 138.067 23.0001 128.804 23.0001C119.568 23.0001 112.849 31.4987 112.849 43.2001C112.849 43.6867 112.949 52.5921 119.339 59.3841L86.416 73.0174C86.136 63.7201 79.908 57.3361 79.5613 56.9894C71.28 48.7081 60.5227 47.4587 53.9987 53.9934C47.452 60.5387 48.708 71.2987 56.9773 79.5801C57.3293 79.9147 63.7013 86.1414 73.0107 86.4201L59.3773 119.333C52.608 112.961 43.6813 112.849 43.196 112.849C31.4987 112.849 23 119.568 23 128.825C23 138.079 31.4987 144.785 43.196 144.785C43.6813 144.785 52.608 144.685 59.3773 138.301L73.0107 171.213C63.7013 171.493 57.3293 177.72 56.9827 178.079C48.708 186.337 47.452 197.095 53.9987 203.647C60.5227 210.176 71.28 208.925 79.5613 200.644C79.908 200.309 86.136 193.916 86.416 184.629L119.339 198.256C112.949 205.041 112.849 213.948 112.849 214.428C112.849 226.147 119.561 234.629 128.804 234.629C138.067 234.629 144.768 226.147 144.768 214.428C144.768 213.948 144.673 205.041 138.296 198.256L171.208 184.629C171.487 193.916 177.72 200.309 178.067 200.644C186.336 208.925 197.085 210.176 203.636 203.647C210.176 197.095 208.915 186.337 200.64 178.079C200.299 177.72 193.915 171.493 184.605 171.213L198.245 138.301C205.025 144.685 213.941 144.785 214.421 144.785C226.136 144.785 234.623 138.079 234.623 128.825C234.623 119.568 226.136 112.849 214.421 112.849Z"
        fill="white" />
</svg>