<svg width="691" height="691" viewBox="0 0 691 691" fill="none" xmlns="http://www.w3.org/2000/svg">
<rect width="691" height="691" fill="#150938"/>
<path d="M597.079 185.351C597.079 185.351 554.508 231.728 531.38 228.09C539.915 275.556 520.417 336.018 479.564 336.018C428.32 336.018 408.681 269.858 383.059 242.1C357.437 214.343 329.68 225.019 301.923 254.911C274.165 284.804 256.779 362.599 210.109 359.535C163.44 356.471 197.125 198.18 174.793 161.423C161.001 131.071 94.8106 126.8 75.5932 154.558C39.2959 192.991 67.0532 409.103 88.4052 464.159C109.756 519.214 126.837 555.971 180.217 555.971C233.597 555.971 254.948 521.808 278.436 481.24C301.923 440.672 329.68 395.834 357.437 393.698C385.195 391.563 402.276 408.644 419.357 423.591C436.439 438.536 450.925 456.078 483.183 481.47C515.44 506.862 560.279 479.106 583.765 440.672C607.253 402.239 628.851 212.67 632.036 142.643C626.959 147.722 597.079 185.351 597.079 185.351Z" fill="white"/>
<path d="M526.971 182.724C530.469 181.269 536.209 181.401 538.087 181.269C592.58 177.427 632.036 140.643 632.036 140.643C632.036 140.643 595.149 264.084 525.644 293.588C536.951 248.232 498.08 196.875 526.971 182.724Z" fill="#5A58A8"/>
</svg>
