<svg xmlns="http://www.w3.org/2000/svg" xmlns:xlink="http://www.w3.org/1999/xlink" viewBox="0 0 40 40"><defs><clipPath id="a"><path d="M19.53,6.27,8.74,12.49a1.31,1.31,0,0,0-.66,1.13V26.08a1.33,1.33,0,0,0,.65,1.13l10.79,6.23a1.31,1.31,0,0,0,1.3,0l10.79-6.23a1.33,1.33,0,0,0,.65-1.13V13.62a1.3,1.3,0,0,0-.65-1.13L20.83,6.27a1.28,1.28,0,0,0-1.31,0" style="fill:none"/></clipPath><linearGradient id="b" x1="-214.87" y1="-431.73" x2="-214.57" y2="-431.73" gradientTransform="matrix(-50.8, 103.5, -103.5, -50.8, -55574.1, 317.4)" gradientUnits="userSpaceOnUse"><stop offset="0.3" stop-color="#3e863d"/><stop offset="0.5" stop-color="#55934f"/><stop offset="0.8" stop-color="#5aad45"/></linearGradient><clipPath id="c"><path d="M8.36,26.87a1.24,1.24,0,0,0,.38.34L18,32.55l1.54.88a1.32,1.32,0,0,0,.75.17,1.17,1.17,0,0,0,.26,0L31.92,12.73a1.5,1.5,0,0,0-.31-.24L24.55,8.41,20.82,6.27a1.43,1.43,0,0,0-.34-.14Z" style="fill:none"/></clipPath><linearGradient id="d" x1="-216.24" y1="574.22" x2="-216.04" y2="574.22" gradientTransform="matrix(142.36, -105.34, -105.34, -142.36, 91283.4, 58996.85)" gradientUnits="userSpaceOnUse"><stop offset="0.57" stop-color="#3e863d"/><stop offset="0.72" stop-color="#619857"/><stop offset="1" stop-color="#76ac64"/></linearGradient><clipPath id="e"><path d="M20.05,6.1a1.38,1.38,0,0,0-.52.17L8.78,12.48,20.37,33.6a1.54,1.54,0,0,0,.47-.16l10.78-6.23a1.33,1.33,0,0,0,.63-.89L20.43,6.12a2.48,2.48,0,0,0-.27,0h-.11" style="fill:none"/></clipPath><linearGradient id="f" x1="-215.54" y1="-431.16" x2="-215.36" y2="-431.16" gradientTransform="translate(28007.2 56027.5) scale(129.9)" gradientUnits="userSpaceOnUse"><stop offset="0.16" stop-color="#6bbf47"/><stop offset="0.38" stop-color="#79b461"/><stop offset="0.47" stop-color="#75ac64"/><stop offset="0.7" stop-color="#659e5a"/><stop offset="0.9" stop-color="#3e863d"/></linearGradient></defs><title>nodejs-logo</title><g style="clip-path:url(#a)"><path d="M43.16,11.43,12.77-3.46-2.81,28.33,27.58,43.22Z" style="fill:url(#b)"/></g><g style="clip-path:url(#c)"><path d="M-4.78,15.84l21.46,29,28.38-21L23.6-5.13Z" style="fill:url(#d)"/></g><g style="clip-path:url(#e)"><path d="M8.77,6.09V33.6H32.24V6.09Z" style="fill:url(#f)"/></g></svg>