<svg width="32" height="32" viewBox="0 0 32 32" fill="none" xmlns="http://www.w3.org/2000/svg">
<path fill-rule="evenodd" clip-rule="evenodd" d="M3.24764 21.9646C2.92209 21.4511 2.91717 20.7971 3.23496 20.2786L15.2003 0.760712C15.8658 -0.324865 17.4728 -0.229945 18.0059 0.926419L28.9368 24.6382C29.3423 25.518 28.8755 26.5531 27.9475 26.8315L10.9437 31.9327C10.2595 32.1379 9.52239 31.8629 9.13997 31.2596L3.24764 21.9646ZM16.5808 6.46758C16.6961 5.89341 17.4828 5.81061 17.7152 6.34819L25.2552 23.7953C25.3971 24.1238 25.2205 24.5027 24.8775 24.605L13.1292 28.112C12.6974 28.2409 12.2837 27.8636 12.3725 27.4217L16.5808 6.46758Z" fill="white"/>
</svg>
