<svg width="319" height="93" viewBox="0 0 319 93" fill="none" xmlns="http://www.w3.org/2000/svg">
<g filter="url(#filter0_d)">
<path d="M66.7969 1.42188C76.5781 1.42188 83.3594 4.95312 87.1406 12.0156L89.6719 22.6094C89.6719 26.9844 77.3906 35.3125 52.8281 47.5938C40.0781 53.0625 33.4375 56.4531 32.9062 57.7656C30.9375 61.4219 29.6719 63.25 29.1094 63.25C27.7031 64.375 26.4375 66.0625 25.3125 68.3125H24.4688V68.7344L24.0469 68.3125H23.625C23.0312 68.3125 22.1875 70.1562 21.0938 73.8438H20.25L20.6719 74.2656V74.6875C19.7969 74.6875 17.6719 78.0781 14.2969 84.8594C13.4531 88.2344 11.7656 89.9219 9.23438 89.9219V89.0781H8.8125L7.125 89.5L6.65625 89.0781H6.23438L4.96875 89.5L4.125 88.6562L3.28125 89.5L0.328125 86.125V85.2812C0.328125 82.4688 3.85938 73.7188 10.9219 59.0312L9.65625 58.6094L10.0781 58.1875V57.7656L7.96875 56.0312L6.23438 56.4531L5.39062 55.1875L5.8125 54.7656V54.3438C4.125 54.3438 3.28125 53.9219 3.28125 53.0781C6.75 50.3281 12.25 47.0781 19.7812 43.3281L28.2656 25.9844H27.8438C24.4688 25.9844 21.2188 22.7344 18.0938 16.2344V12.4375C20.4062 9.5 26.3438 7.10937 35.9062 5.26562C41.375 4.10937 51.6719 2.82812 66.7969 1.42188ZM43.5 32.7812H43.9219C53.1094 28.5 61.5781 23.2656 69.3281 17.0781V16.6562H68.9062C57.3438 17.0937 51.5625 17.9531 51.5625 19.2344L43.5 32.7812ZM129.047 4.46875C129.047 5.53125 129.578 6.0625 130.641 6.0625V6.85938H129.422V7.28125C130.766 7.28125 131.438 7.54688 131.438 8.07812V8.5H129.844C129.844 9.3125 130.641 9.71875 132.234 9.71875V10.5156H131.016V10.8906H135.844L139.5 12.9062L139.078 13.3281V13.7031C140.422 13.7031 141.094 13.9844 141.094 14.5469C141.094 15.5156 136.125 16.5781 126.188 17.7344C122.812 17.7344 116.391 19.6094 106.922 23.3594L102.469 32.2188H102.891C104.328 31.6875 108.484 31.2812 115.359 31L116.156 32.2188L114.938 32.6406V33.0156C117.094 33.0156 118.172 33.2812 118.172 33.8125L116.156 34.6562V35.0312H116.953L116.578 36.25C116.578 37.5938 117.641 38.6719 119.766 39.4844V39.8594L119.391 40.2812V40.6562C120.734 40.6562 121.406 40.9375 121.406 41.5V41.875C121.406 42.6875 112.953 44.8281 96.0469 48.2969C93.9531 48.2969 91.2656 52.3281 87.9844 60.3906L116.953 55.5625V56.3594H117.375L119.391 55.9375C119.734 57.2812 120.406 57.9531 121.406 57.9531V59.1719C120.75 59.1719 120.078 59.5781 119.391 60.3906H118.547V60.7656H120.984V61.6094H118.969L119.391 61.9844V62.4062L118.969 62.7812C122.938 62.7812 125.078 63.4531 125.391 64.7969L125.016 65.2188C126.359 65.4062 127.031 65.8125 127.031 66.4375C124.656 67.9688 116.609 69.9688 102.891 72.4375C86.7969 75.1562 78.75 77.5781 78.75 79.7031C78.375 81.1094 77.1719 82.3125 75.1406 83.3125H74.7188L72.3281 81.2969H71.4844L69.4688 81.7188C69.4688 81.0312 68.1406 80.3594 65.4844 79.7031L64.2656 80.0781L63.8438 79.7031V79.2812L64.2656 78.0625H63.4688L63.0469 78.4844H62.6719L62.25 78.0625V77.6875C64.4688 69.7188 74.3906 47.1875 92.0156 10.0938C92.0156 7.40625 93.8906 5.79687 97.6406 5.26562L113.344 5.6875L129.047 4.46875ZM173.578 0.578125L181.969 1H190.359C191.984 1 193.172 1.75 193.922 3.25L193.453 3.67188C194.922 3.76562 195.656 4.20312 195.656 4.98438V5.45312H190.828V5.875H192.562V6.76562H191.719L192.141 7.23438L191.719 7.65625V8.54688L193.922 8.96875V9.4375L193.453 9.85938V10.3281C195.234 10.3281 196.125 11.5 196.125 13.8438C197.312 14 197.906 14.4375 197.906 15.1562V16.0469L171.797 19.1406C169.578 19.1406 167.812 21.9375 166.5 27.5312C150.938 57.8438 141.641 77.1562 138.609 85.4688C136.828 87.25 135.359 88.1406 134.203 88.1406L132.422 86.3594C130.672 86.3594 129.797 85.625 129.797 84.1562L129.328 84.625H128.906C128.844 83.875 127.375 82.5469 124.5 80.6406L123.141 78.3906C123.141 72.4531 130.219 56.6875 144.375 31.0938L147.938 22.7031L131.531 25.3281C125.344 25.3281 121.219 22.5312 119.156 16.9375L117.844 11.6406V10.75C117.844 8.875 119.016 7.10937 121.359 5.45312H127.125C136.375 5.45312 151.859 3.82812 173.578 0.578125ZM238.266 2.54688C241.984 2.54688 244.344 3.5 245.344 5.40625C246.438 5.40625 246.984 6.26562 246.984 7.98438C246.984 11.0781 241.719 23.25 231.188 44.5C226.656 53.7812 219.047 64.4531 208.359 76.5156C201.953 82.6094 193.781 85.6562 183.844 85.6562C176.312 85.6562 171.047 81.9062 168.047 74.4062C167.484 73.3438 167.203 71.8125 167.203 69.8125V67.3281C167.609 58.2969 169.688 49.8594 173.438 42.0156H174.281C176.5 43.9844 177.734 45.7969 177.984 47.4531C178.547 47.4531 178.828 47.0312 178.828 46.1875H179.625V49.0938C180.219 49.0938 180.516 48.3906 180.516 46.9844L180.938 46.6094H181.359L181.734 47.8281C182.672 47.8281 183.656 46.0156 184.688 42.3906L186.328 42.0156C186.328 43.6719 186.734 44.5 187.547 44.5V43.7031H188.391L185.906 66.9531L186.703 71.125H187.547C191.641 69.9062 197.594 63.3906 205.406 51.5781C212.219 40.8594 219.016 27.2812 225.797 10.8438C225.797 6.53125 229.953 3.76562 238.266 2.54688ZM263.766 4.84375C271.297 4.84375 275.906 7.07813 277.594 11.5469C278.562 15.5156 279.734 23.3906 281.109 35.1719L281.531 35.5938C281.688 37.4375 282.078 38.3594 282.703 38.3594L295.312 36.7656V37.5625H295.734L302.016 37.1875V37.9375L299.25 38.7344V39.1562H302.016L304.781 38.7344V39.5312C302.094 40.5938 300 41.125 298.5 41.125V41.9219L300.469 41.5C302.281 42.0312 303.188 42.5625 303.188 43.0938L305.203 42.6719C310.453 42.8281 313.078 43.3594 313.078 44.2656L312.656 44.6406L315.422 45.4375V46.2344C311.859 48.0781 304.5 49.6562 293.344 50.9688L286.266 52.1406C289.672 65.5156 291.375 74.5938 291.375 79.375V80.9219L290.203 82.1406H289.781C288.906 82.1406 288 81.7344 287.062 80.9219V82.1406H286.266V81.3438L285.047 82.1406L283.5 80.9219L279.562 82.5156L276.375 79.375C275.062 77.25 273.094 69.4844 270.469 56.0781H270.094C253.531 60.6406 245.25 64.2031 245.25 66.7656C244.188 67.4219 241.031 71.4844 235.781 78.9531C233.969 81.0781 232.516 82.1406 231.422 82.1406L230.625 80.1719L230.25 80.5469H229.875C228.281 79.6094 227.484 78.5625 227.484 77.4062L227.109 77.7812H226.312V76.9844C225.219 76.9844 224.172 76.2031 223.172 74.6406C222.109 74.6406 221.578 74.375 221.578 73.8438V71.0781C221.578 68.1406 224.734 63.2812 231.047 56.5C233.734 52.0312 238.078 45.8438 244.078 37.9375L257.484 14.3125L260.203 6.39062C261.609 5.35938 262.797 4.84375 263.766 4.84375ZM260.625 43.0938V43.4688C265.094 42.3125 267.328 41.5312 267.328 41.125L266.156 34.7969C265.438 35.1094 263.594 37.875 260.625 43.0938ZM297.281 36.3906H298.078V37.1875H297.281V36.3906ZM297.703 39.1562V39.5312H298.5V39.1562H297.703Z" fill="url(#paint0_linear)"/>
</g>
<defs>
<filter id="filter0_d" x="0.328125" y="0.578125" width="318.094" height="92.3438" filterUnits="userSpaceOnUse" color-interpolation-filters="sRGB">
<feFlood flood-opacity="0" result="BackgroundImageFix"/>
<feColorMatrix in="SourceAlpha" type="matrix" values="0 0 0 0 0 0 0 0 0 0 0 0 0 0 0 0 0 0 127 0"/>
<feOffset dx="3" dy="3"/>
<feColorMatrix type="matrix" values="0 0 0 0 0 0 0 0 0 0 0 0 0 0 0 0 0 0 1 0"/>
<feBlend mode="normal" in2="BackgroundImageFix" result="effect1_dropShadow"/>
<feBlend mode="normal" in="SourceGraphic" in2="effect1_dropShadow" result="shape"/>
</filter>
<linearGradient id="paint0_linear" x1="157.5" y1="-14" x2="157.5" y2="97" gradientUnits="userSpaceOnUse">
<stop stop-color="#FF0000"/>
<stop offset="1" stop-color="#FF0080"/>
</linearGradient>
</defs>
</svg>
