<svg width="354" height="92" viewBox="0 0 354 92" fill="none" xmlns="http://www.w3.org/2000/svg">
<g filter="url(#filter0_d)">
<path d="M56.0781 0.578125L64.4688 1H72.8594C74.4844 1 75.6719 1.75 76.4219 3.25L75.9531 3.67188C77.4219 3.76562 78.1562 4.20312 78.1562 4.98438V5.45312H73.3281V5.875H75.0625V6.76562H74.2188L74.6406 7.23438L74.2188 7.65625V8.54688L76.4219 8.96875V9.4375L75.9531 9.85938V10.3281C77.7344 10.3281 78.625 11.5 78.625 13.8438C79.8125 14 80.4062 14.4375 80.4062 15.1562V16.0469L54.2969 19.1406C52.0781 19.1406 50.3125 21.9375 49 27.5312C33.4375 57.8438 24.1406 77.1562 21.1094 85.4688C19.3281 87.25 17.8594 88.1406 16.7031 88.1406L14.9219 86.3594C13.1719 86.3594 12.2969 85.625 12.2969 84.1562L11.8281 84.625H11.4062C11.3438 83.875 9.875 82.5469 7 80.6406L5.64062 78.3906C5.64062 72.4531 12.7188 56.6875 26.875 31.0938L30.4375 22.7031L14.0312 25.3281C7.84375 25.3281 3.71875 22.5312 1.65625 16.9375L0.34375 11.6406V10.75C0.34375 8.875 1.51562 7.10937 3.85938 5.45312H9.625C18.875 5.45312 34.3594 3.82812 56.0781 0.578125ZM134.547 2.875H135.016C137.984 2.875 140.984 5.73438 144.016 11.4531L144.484 11.9219V14.0312C144.484 15.375 142.234 16.5312 137.734 17.5V17.9219C144.641 26.4844 148.094 34.5 148.094 41.9688V44.125C148.094 62.625 140.125 74.5156 124.188 79.7969C118.75 81.2344 114.25 81.9531 110.688 81.9531H105.719C91.7188 81.9531 81.6406 74.7969 75.4844 60.4844C74.6094 60.2969 74.0156 57.7188 73.7031 52.75V49.7031C73.7031 35.8281 83.7656 23.2344 103.891 11.9219C116.609 5.89062 126.828 2.875 134.547 2.875ZM90.3906 53.5938V54.0156C90.3906 58.9844 93.5469 61.8438 99.8594 62.5938H103.469C113.188 62.5938 122.203 57.0156 130.516 45.8594C131.797 42.9219 132.688 39.0469 133.188 34.2344C132.906 30.2344 132.469 27.7969 131.875 26.9219L132.297 25.6562C131.484 21.3438 130.891 19.1875 130.516 19.1875C121.672 20.375 111.453 26.1094 99.8594 36.3906C93.5469 42.5156 90.3906 48.25 90.3906 53.5938ZM172.609 2.96875H174.672C179.016 2.96875 182.562 5.28125 185.312 9.90625L185.688 11.5469C185.688 13.8281 182.688 20.6562 176.688 32.0312C170.406 44.375 167.266 55.6875 167.266 65.9688V67.1875C174.328 62.5938 180.062 57 184.469 50.4062C194.844 37.1875 200.984 27.6406 202.891 21.7656L205.328 16.4688C206.141 16.4688 206.547 16.0625 206.547 15.25L206.969 14.8281H207.812V16.4688H208.188C208.938 11.8437 209.625 9.53125 210.25 9.53125H210.672V11.1719H211.047V7.89062H211.891V9.10938C212.859 8.60937 214.078 6.5625 215.547 2.96875H215.969C218.688 5.5 220.047 9.45312 220.047 14.8281C220.047 32.8281 208.469 53.2812 185.312 76.1875C180.875 78.9375 175.828 80.3125 170.172 80.3125C159.703 80.3125 152.734 76.4844 149.266 68.8281L148.469 63.9062V61.8906C148.469 51.1406 150.656 41.5938 155.031 33.25L165.672 8.26562C167.984 4.73438 170.297 2.96875 172.609 2.96875ZM257.547 1.60938H261.203C279.422 1.60938 290.172 7.59375 293.453 19.5625L293.875 22.0469V23.2656C293.875 26.8594 285.703 32.8438 269.359 41.2188C273.453 58.5625 275.5 70.6719 275.5 77.5469L275.922 77.9688V78.3438L275.5 79.6094L275.922 83.2656L275.5 83.6875H274.703C274.703 82.5938 274.422 82.0469 273.859 82.0469C273.859 82.8594 273.594 83.2656 273.062 83.2656H272.219L271.844 82.8438H271.422C271.016 83.9375 270.609 84.4844 270.203 84.4844L268.141 84.0625L267.344 84.9062C267.156 83.5312 266.469 82.8438 265.281 82.8438C260.938 72.7188 257.141 61.0156 253.891 47.7344L235.516 53.875C233.828 57.7188 232.469 59.8906 231.438 60.3906L231.016 62.4531H229.797L231.438 57.9531V57.5312H231.016L228.953 62.0312L229.797 62.875C228.766 62.875 226.719 65.7188 223.656 71.4062C223.281 71.4375 222.469 73.2188 221.219 76.75C220.656 76.75 219.297 79.4688 217.141 84.9062H216.719C216.719 83.6562 215.359 82.5625 212.641 81.625L211.844 82.4688C211.844 81.9062 211.422 81.625 210.578 81.625L209.359 82.0469C208.766 80.5781 207.953 79.7656 206.922 79.6094V78.3438C206.922 71.75 214.406 53.5156 229.375 23.6406C223.656 19.7656 220.797 16.6406 220.797 14.2656V12.25C221.016 10.8125 226.047 8.35938 235.891 4.89062C237.266 2.70312 244.484 1.60938 257.547 1.60938ZM244.469 33.8594H245.312C261.656 26.8594 271.578 21.2812 275.078 17.125V16.7031L266.922 16.3281H266.125C255.781 16.3281 250.609 17.5469 250.609 19.9844C247.391 28.2031 245.344 32.8281 244.469 33.8594ZM303.203 2.96875H305.266C309.609 2.96875 313.156 5.28125 315.906 9.90625L316.281 11.5469C316.281 13.8281 313.281 20.6562 307.281 32.0312C301 44.375 297.859 55.6875 297.859 65.9688V67.1875C304.922 62.5938 310.656 57 315.062 50.4062C325.438 37.1875 331.578 27.6406 333.484 21.7656L335.922 16.4688C336.734 16.4688 337.141 16.0625 337.141 15.25L337.562 14.8281H338.406V16.4688H338.781C339.531 11.8437 340.219 9.53125 340.844 9.53125H341.266V11.1719H341.641V7.89062H342.484V9.10938C343.453 8.60937 344.672 6.5625 346.141 2.96875H346.562C349.281 5.5 350.641 9.45312 350.641 14.8281C350.641 32.8281 339.062 53.2812 315.906 76.1875C311.469 78.9375 306.422 80.3125 300.766 80.3125C290.297 80.3125 283.328 76.4844 279.859 68.8281L279.062 63.9062V61.8906C279.062 51.1406 281.25 41.5938 285.625 33.25L296.266 8.26562C298.578 4.73438 300.891 2.96875 303.203 2.96875Z" fill="url(#paint0_linear)"/>
</g>
<defs>
<filter id="filter0_d" x="0.34375" y="0.578125" width="353.297" height="90.5625" filterUnits="userSpaceOnUse" color-interpolation-filters="sRGB">
<feFlood flood-opacity="0" result="BackgroundImageFix"/>
<feColorMatrix in="SourceAlpha" type="matrix" values="0 0 0 0 0 0 0 0 0 0 0 0 0 0 0 0 0 0 127 0"/>
<feOffset dx="3" dy="3"/>
<feColorMatrix type="matrix" values="0 0 0 0 0 0 0 0 0 0 0 0 0 0 0 0 0 0 1 0"/>
<feBlend mode="normal" in2="BackgroundImageFix" result="effect1_dropShadow"/>
<feBlend mode="normal" in="SourceGraphic" in2="effect1_dropShadow" result="shape"/>
</filter>
<linearGradient id="paint0_linear" x1="180" y1="-14" x2="180" y2="97" gradientUnits="userSpaceOnUse">
<stop stop-color="#FF0080"/>
<stop offset="1" stop-color="#FF00FF"/>
</linearGradient>
</defs>
</svg>
